{
  "accessors": [
    {
      "bufferView": 2,
      "componentType": 5126,
      "count": 192,
      "max": [
        0.9232657551765442,
        0.05514886975288391,
        0.4977557361125946
      ],
      "min": [
        -0.9232657551765442,
        -0.11540865153074265,
        -0.42273637652397156
      ],
      "type": "VEC3"
    },
    {
      "bufferView": 2,
      "byteOffset": 2304,
      "componentType": 5126,
      "count": 192,
      "max": [
        1.0,
        1.0,
        1.0
      ],
      "min": [
        -1.0,
        -1.0,
        -1.0
      ],
      "type": "VEC3"
    },
    {
      "bufferView": 3,
      "componentType": 5126,
      "count": 192,
      "max": [
        0.9999999403953552,
        0.006953105330467224,
        0.9999999403953552,
        -1.0
      ],
      "min": [
        -0.9999991059303284,
        0.0,
        -0.9999991059303284,
        -1.0
      ],
      "type": "VEC4"
    },
    {
      "bufferView": 1,
      "componentType": 5126,
      "count": 192,
      "max": [
        0.9894049763679504,
        0.3610069751739502
      ],
      "min": [
        0.010719000361859798,
        0.006846010684967041
      ],
      "type": "VEC2"
    },
    {
      "bufferView": 1,
      "byteOffset": 1536,
      "componentType": 5126,
      "count": 192,
      "max": [
        0.9894049763679504,
        0.3610069751739502
      ],
      "min": [
        0.010719000361859798,
        0.006846010684967041
      ],
      "type": "VEC2"
    },
    {
      "bufferView": 1,
      "byteOffset": 3072,
      "componentType": 5126,
      "count": 192,
      "max": [
        0.9894049763679504,
        0.3610069751739502
      ],
      "min": [
        0.010719000361859798,
        0.006846010684967041
      ],
      "type": "VEC2"
    },
    {
      "bufferView": 1,
      "byteOffset": 4608,
      "componentType": 5126,
      "count": 192,
      "max": [
        0.9894049763679504,
        0.3610069751739502
      ],
      "min": [
        0.010719000361859798,
        0.006846010684967041
      ],
      "type": "VEC2"
    },
    {
      "bufferView": 1,
      "byteOffset": 6144,
      "componentType": 5126,
      "count": 192,
      "max": [
        0.9894049763679504,
        0.3610069751739502
      ],
      "min": [
        0.010719000361859798,
        0.006846010684967041
      ],
      "type": "VEC2"
    },
    {
      "bufferView": 0,
      "componentType": 5125,
      "count": 648,
      "type": "SCALAR"
    },
    {
      "bufferView": 2,
      "byteOffset": 4608,
      "componentType": 5126,
      "count": 1262,
      "max": [
        1.0000001192092896,
        0.24800662696361542,
        0.49947068095207214
      ],
      "min": [
        -1.0,
        -0.24800662696361542,
        -0.49947068095207214
      ],
      "type": "VEC3"
    },
    {
      "bufferView": 2,
      "byteOffset": 19752,
      "componentType": 5126,
      "count": 1262,
      "max": [
        1.0,
        1.0,
        1.0
      ],
      "min": [
        -1.0,
        -1.0,
        -1.0
      ],
      "type": "VEC3"
    },
    {
      "bufferView": 3,
      "byteOffset": 3072,
      "componentType": 5126,
      "count": 1262,
      "max": [
        1.0,
        0.9998337626457214,
        1.0,
        -1.0
      ],
      "min": [
        -0.9999210238456726,
        -0.9999839067459106,
        -0.9999963641166687,
        -1.0
      ],
      "type": "VEC4"
    },
    {
      "bufferView": 1,
      "byteOffset": 7680,
      "componentType": 5126,
      "count": 1262,
      "max": [
        0.9908440113067627,
        0.9765570163726807
      ],
      "min": [
        0.05330200120806694,
        0.4340289831161499
      ],
      "type": "VEC2"
    },
    {
      "bufferView": 1,
      "byteOffset": 17776,
      "componentType": 5126,
      "count": 1262,
      "max": [
        0.9908440113067627,
        0.9765570163726807
      ],
      "min": [
        0.05330200120806694,
        0.4340289831161499
      ],
      "type": "VEC2"
    },
    {
      "bufferView": 1,
      "byteOffset": 27872,
      "componentType": 5126,
      "count": 1262,
      "max": [
        0.9908440113067627,
        0.9765570163726807
      ],
      "min": [
        0.05330200120806694,
        0.4340289831161499
      ],
      "type": "VEC2"
    },
    {
      "bufferView": 1,
      "byteOffset": 37968,
      "componentType": 5126,
      "count": 1262,
      "max": [
        0.9908440113067627,
        0.9765570163726807
      ],
      "min": [
        0.05330200120806694,
        0.4340289831161499
      ],
      "type": "VEC2"
    },
    {
      "bufferView": 1,
      "byteOffset": 48064,
      "componentType": 5126,
      "count": 1262,
      "max": [
        0.9908440113067627,
        0.9765570163726807
      ],
      "min": [
        0.05330200120806694,
        0.4340289831161499
      ],
      "type": "VEC2"
    },
    {
      "bufferView": 0,
      "byteOffset": 2592,
      "componentType": 5125,
      "count": 5208,
      "type": "SCALAR"
    }
  ],
  "asset": {
    "extras": {
      "author": "sharifakram (https://sketchfab.com/sharifakram)",
      "license": "CC-BY-4.0 (http://creativecommons.org/licenses/by/4.0/)",
      "source": "https://sketchfab.com/3d-models/wooden-sofa-9d63c14be96d417090b0f8793534be22",
      "title": "Wooden Sofa"
    },
    "generator": "Sketchfab-10.48.0",
    "version": "2.0"
  },
  "bufferViews": [
    {
      "buffer": 0,
      "byteLength": 23424,
      "name": "floatBufferViews",
      "target": 34963
    },
    {
      "buffer": 0,
      "byteLength": 58160,
      "byteOffset": 23424,
      "byteStride": 8,
      "name": "floatBufferViews",
      "target": 34962
    },
    {
      "buffer": 0,
      "byteLength": 34896,
      "byteOffset": 81584,
      "byteStride": 12,
      "name": "floatBufferViews",
      "target": 34962
    },
    {
      "buffer": 0,
      "byteLength": 23264,
      "byteOffset": 116480,
      "byteStride": 16,
      "name": "floatBufferViews",
      "target": 34962
    }
  ],
  "buffers": [
    {
      "byteLength": 139744,
      "uri": "scene.bin"
    }
  ],
  "images": [
    {
      "uri": "textures/cusion_baseColor.png"
    },
    {
      "uri": "textures/cusion_metallicRoughness.png"
    },
    {
      "uri": "textures/cusion_normal.png"
    },
    {
      "uri": "textures/wood_baseColor.png"
    },
    {
      "uri": "textures/wood_metallicRoughness.png"
    },
    {
      "uri": "textures/wood_normal.png"
    }
  ],
  "materials": [
    {
      "name": "cusion",
      "normalTexture": {
        "index": 2
      },
      "occlusionTexture": {
        "index": 1
      },
      "pbrMetallicRoughness": {
        "baseColorTexture": {
          "index": 0
        },
        "metallicRoughnessTexture": {
          "index": 1
        }
      }
    },
    {
      "name": "wood",
      "normalTexture": {
        "index": 5
      },
      "occlusionTexture": {
        "index": 4
      },
      "pbrMetallicRoughness": {
        "baseColorTexture": {
          "index": 3
        },
        "metallicRoughnessTexture": {
          "index": 4
        }
      }
    }
  ],
  "meshes": [
    {
      "name": "Object_0",
      "primitives": [
        {
          "attributes": {
            "NORMAL": 1,
            "POSITION": 0,
            "TANGENT": 2,
            "TEXCOORD_0": 3,
            "TEXCOORD_1": 4,
            "TEXCOORD_2": 5,
            "TEXCOORD_3": 6,
            "TEXCOORD_4": 7
          },
          "indices": 8,
          "material": 0,
          "mode": 4
        }
      ]
    },
    {
      "name": "Object_1",
      "primitives": [
        {
          "attributes": {
            "NORMAL": 10,
            "POSITION": 9,
            "TANGENT": 11,
            "TEXCOORD_0": 12,
            "TEXCOORD_1": 13,
            "TEXCOORD_2": 14,
            "TEXCOORD_3": 15,
            "TEXCOORD_4": 16
          },
          "indices": 17,
          "material": 1,
          "mode": 4
        }
      ]
    }
  ],
  "nodes": [
    {
      "children": [
        1
      ],
      "matrix": [
        0.09220042824745178,
        0.0,
        0.0,
        0.0,
        0.0,
        2.0472607664124128e-17,
        -0.09220042824745178,
        0.0,
        0.0,
        0.09220042824745178,
        2.0472607664124128e-17,
        0.0,
        0.0,
        0.0,
        0.0,
        1.0
      ],
      "name": "Sketchfab_model"
    },
    {
      "children": [
        2
      ],
      "name": "root"
    },
    {
      "children": [
        3
      ],
      "matrix": [
        1.0,
        0.0,
        0.0,
        0.0,
        0.0,
        2.220446049250313e-16,
        1.0,
        0.0,
        0.0,
        -1.0,
        2.220446049250313e-16,
        0.0,
        0.0,
        0.0,
        0.0,
        1.0
      ],
      "name": "GLTF_SceneRootNode"
    },
    {
      "children": [
        4
      ],
      "matrix": [
        10.649785995483398,
        0.0,
        0.0,
        0.0,
        0.0,
        10.649785995483398,
        0.0,
        0.0,
        0.0,
        0.0,
        10.649785995483398,
        0.0,
        -0.021898269653320313,
        2.656740427017212,
        0.0,
        1.0
      ],
      "name": "sofa_Low_Poly.obj_0"
    },
    {
      "children": [
        5,
        7
      ],
      "name": "g sofa_Low_Poly_1"
    },
    {
      "children": [
        6
      ],
      "name": "sofa_Low_Poly_2"
    },
    {
      "mesh": 0,
      "name": "Object_6"
    },
    {
      "children": [
        8
      ],
      "name": "sofa_Low_Poly_3"
    },
    {
      "mesh": 1,
      "name": "Object_8"
    }
  ],
  "samplers": [
    {
      "magFilter": 9729,
      "minFilter": 9987,
      "wrapS": 10497,
      "wrapT": 10497
    }
  ],
  "scene": 0,
  "scenes": [
    {
      "name": "Sketchfab_Scene",
      "nodes": [
        0
      ]
    }
  ],
  "textures": [
    {
      "sampler": 0,
      "source": 0
    },
    {
      "sampler": 0,
      "source": 1
    },
    {
      "sampler": 0,
      "source": 2
    },
    {
      "sampler": 0,
      "source": 3
    },
    {
      "sampler": 0,
      "source": 4
    },
    {
      "sampler": 0,
      "source": 5
    }
  ]
}
